<svg width="40" height="50" viewBox="0 0 40 50" fill="none" xmlns="http://www.w3.org/2000/svg">
<path d="M20.207 0.390625C9.34575 0.390625 0.509521 8.97705 0.509521 19.5312C0.509521 24.6582 3.70604 31.2422 10.0102 39.0994C12.8985 42.6899 16.0263 46.0922 19.3735 49.2844C19.5979 49.4929 19.8965 49.6093 20.207 49.6093C20.5175 49.6093 20.8161 49.4929 21.0405 49.2844C24.3877 46.0922 27.5155 42.6899 30.4038 39.0994C36.708 31.2422 39.9045 24.6582 39.9045 19.5312C39.9045 8.97705 31.0683 0.390625 20.207 0.390625ZM20.207 33.2031C12.4486 33.2031 6.13737 27.0703 6.13737 19.5312C6.13737 11.9922 12.4486 5.85938 20.207 5.85938C27.9654 5.85938 34.2766 11.9922 34.2766 19.5312C34.2766 27.0703 27.9654 33.2031 20.207 33.2031Z" fill="white"/>
<path d="M29.862 17.8829L21.0182 10.0704C20.7963 9.87428 20.507 9.76562 20.207 9.76562C19.907 9.76562 19.6178 9.87428 19.3958 10.0704L10.552 17.8829C10.346 18.0649 10.2111 18.3107 10.1703 18.5783C10.1294 18.846 10.1851 19.1192 10.3279 19.3515C10.4406 19.5284 10.5985 19.6739 10.7862 19.7739C10.974 19.8738 11.1852 19.9248 11.3992 19.9219H12.5692V27.3437C12.5692 27.6545 12.6963 27.9526 12.9224 28.1724C13.1486 28.3921 13.4554 28.5156 13.7752 28.5156H16.5891C16.909 28.5156 17.2157 28.3921 17.4419 28.1724C17.668 27.9526 17.7951 27.6545 17.7951 27.3437V23.0469C17.7951 22.7361 17.9221 22.438 18.1483 22.2182C18.3745 21.9984 18.6812 21.875 19.0011 21.875H21.413C21.7328 21.875 22.0396 21.9984 22.2657 22.2182C22.4919 22.438 22.619 22.7361 22.619 23.0469V27.3437C22.619 27.6545 22.746 27.9526 22.9722 28.1724C23.1983 28.3921 23.5051 28.5156 23.8249 28.5156H26.6388C26.9587 28.5156 27.2654 28.3921 27.4916 28.1724C27.7178 27.9526 27.8448 27.6545 27.8448 27.3437V19.9219H29.0148C29.2289 19.9248 29.44 19.8738 29.6278 19.7739C29.8155 19.6739 29.9734 19.5284 30.0861 19.3515C30.2289 19.1192 30.2846 18.846 30.2438 18.5783C30.2029 18.3107 30.068 18.0649 29.862 17.8829V17.8829Z" fill="white"/>
</svg>
