<svg width="51" height="50" viewBox="0 0 51 50" fill="none" xmlns="http://www.w3.org/2000/svg">
<g clip-path="url(#clip0)">
<path d="M44.9251 13.1561C43.8924 13.6571 43.4603 14.9033 43.9599 15.9383C45.3248 18.7658 46.0167 21.8135 46.0167 25C46.0167 36.4873 36.6966 45.8333 25.2411 45.8333C13.7855 45.8333 4.46543 36.4873 4.46543 25C4.46543 13.5127 13.7855 4.16667 25.2411 4.16667C29.9881 4.16667 34.4476 5.72103 38.1386 8.6614C39.0338 9.37805 40.3429 9.22801 41.0576 8.32723C41.7723 7.42696 41.6227 6.11572 40.7239 5.40009C36.3542 1.91752 30.8554 0 25.2411 0C11.495 0 0.310303 11.2157 0.310303 25C0.310303 38.7843 11.495 50 25.2411 50C38.9871 50 50.1718 38.7843 50.1718 25C50.1718 21.1802 49.34 17.5196 47.6996 14.124C47.201 13.0864 45.9543 12.6541 44.9251 13.1561Z" fill="white"/>
<path d="M25.241 8.33331C24.0942 8.33331 23.1635 9.26664 23.1635 10.4166V25C23.1635 26.15 24.0942 27.0833 25.241 27.0833H35.6288C36.7756 27.0833 37.7064 26.15 37.7064 25C37.7064 23.85 36.7756 22.9166 35.6288 22.9166H27.3186V10.4166C27.3186 9.26664 26.3878 8.33331 25.241 8.33331Z" fill="white"/>
</g>
<defs>
<clipPath id="clip0">
<rect width="49.8615" height="50" fill="white" transform="translate(0.310303)"/>
</clipPath>
</defs>
</svg>
