<svg width="50" height="50" viewBox="0 0 50 50" fill="none" xmlns="http://www.w3.org/2000/svg">
<path d="M25.0003 4.16663C19.475 4.16663 14.1759 6.36156 10.2689 10.2686C6.36193 14.1756 4.16699 19.4746 4.16699 25C4.16699 30.5253 6.36193 35.8243 10.2689 39.7314C14.1759 43.6384 19.475 45.8333 25.0003 45.8333C30.5257 45.8333 35.8247 43.6384 39.7317 39.7314C43.6387 35.8243 45.8337 30.5253 45.8337 25C45.8337 19.4746 43.6387 14.1756 39.7317 10.2686C35.8247 6.36156 30.5257 4.16663 25.0003 4.16663Z" fill="#FAFAFA"/>
<path d="M37.4344 18.7927C37.4823 18.6355 37.5052 18.4896 37.499 18.3594C37.4833 17.9823 37.224 17.7084 36.6135 17.7084H33.8865C33.1979 17.7084 32.8802 18.125 32.6948 18.5427C32.6948 18.5427 30.9948 22.0417 29.0354 24.349C28.4 25.0167 28.0771 25 27.7333 25C27.549 25 27.0833 24.7771 27.0833 24.1657V18.7646C27.0833 18.0417 26.9031 17.7084 26.3208 17.7084H21.4781C21.0542 17.7084 20.8333 18.0417 20.8333 18.3761C20.8333 19.0709 21.7688 19.2375 21.875 21.1844V24.9584C21.875 25.875 21.7156 26.0417 21.3719 26.0417C20.4448 26.0417 18.6198 22.9167 17.3979 18.8209C17.1333 18.0146 16.8688 17.7084 16.1802 17.7084H13.4271C12.6323 17.7084 12.5 18.098 12.5 18.5146C12.5 19.2657 13.125 23.3261 16.5365 27.9948C19.0104 31.3803 22.2698 33.3334 25.1552 33.3334C26.9031 33.3334 27.0823 32.8886 27.0823 32.1938V29.098C27.0833 28.2636 27.274 28.125 27.8302 28.125C28.2271 28.125 29.0365 28.3855 30.599 30.2084C32.401 32.3105 32.7281 33.3334 33.7615 33.3334H36.4885C37.1219 33.3334 37.4854 33.0678 37.5 32.5521C37.5031 32.4209 37.4844 32.274 37.4417 32.1105C37.2396 31.5105 36.3125 30.0438 35.1563 28.6459C34.5156 27.8719 33.8833 27.1053 33.5927 26.6886C33.3979 26.4167 33.324 26.225 33.3333 26.0417C33.3427 25.849 33.4427 25.6657 33.5927 25.4094C33.5656 25.4094 37.0906 20.4605 37.4344 18.7927Z" fill="black"/>
</svg>
