<svg width="50" height="50" viewBox="0 0 50 50" fill="none" xmlns="http://www.w3.org/2000/svg">
<path d="M33.6719 42.5781H16.3281C12.5 42.5781 9.375 39.4531 9.375 35.625V18.2812C9.375 14.4531 12.5 11.3281 16.3281 11.3281H33.6719C37.5 11.3281 40.625 14.4531 40.625 18.2812V35.625C40.625 39.4531 37.5 42.5781 33.6719 42.5781Z" fill="black"/>
<path d="M9.375 18.2812V22.6562H40.625V18.2812C40.625 14.4531 37.5 11.3281 33.6719 11.3281H16.3281C12.5 11.3281 9.375 14.4531 9.375 18.2812Z" fill="white"/>
<path d="M33.6719 43.75H16.3281C11.8359 43.75 8.20312 40.1172 8.20312 35.625V18.2812C8.20312 13.7891 11.8359 10.1562 16.3281 10.1562H33.6719C38.1641 10.1562 41.7969 13.7891 41.7969 18.2812V35.625C41.7969 40.1172 38.1641 43.75 33.6719 43.75ZM16.3281 12.5C13.125 12.5 10.5469 15.0781 10.5469 18.2812V35.625C10.5469 38.7891 13.125 41.4062 16.3281 41.4062H33.6719C36.8359 41.4062 39.4531 38.8281 39.4531 35.625V18.2812C39.4531 15.1172 36.875 12.5 33.6719 12.5H16.3281Z" fill="white"/>
<path d="M25 21.0938C24.2305 21.0937 23.4686 21.2453 22.7577 21.5398C22.0468 21.8342 21.4009 22.2658 20.8568 22.8099C20.3127 23.354 19.8811 23.9999 19.5866 24.7108C19.2922 25.4217 19.1406 26.1837 19.1406 26.9531C19.1406 27.7226 19.2922 28.4845 19.5866 29.1954C19.8811 29.9063 20.3127 30.5522 20.8568 31.0963C21.4009 31.6404 22.0468 32.072 22.7577 32.3665C23.4686 32.6609 24.2305 32.8125 25 32.8125C25.7695 32.8125 26.5314 32.6609 27.2423 32.3665C27.9532 32.072 28.5991 31.6404 29.1432 31.0963C29.6873 30.5522 30.1189 29.9063 30.4134 29.1954C30.7078 28.4845 30.8594 27.7226 30.8594 26.9531C30.8594 26.1837 30.7078 25.4217 30.4134 24.7108C30.1189 23.9999 29.6873 23.354 29.1432 22.8099C28.5991 22.2658 27.9532 21.8342 27.2423 21.5398C26.5314 21.2453 25.7695 21.0937 25 21.0938Z" fill="white"/>
<path d="M25 33.9844C21.1328 33.9844 17.9688 30.8203 17.9688 26.9531C17.9688 26.2891 18.4766 25.7812 19.1406 25.7812C19.8047 25.7812 20.3125 26.2891 20.3125 26.9531C20.3125 29.5312 22.4219 31.6406 25 31.6406C27.5781 31.6406 29.6875 29.5312 29.6875 26.9531C29.6875 24.375 27.5781 22.2656 25 22.2656C24.3359 22.2656 23.8281 21.7578 23.8281 21.0938C23.8281 20.4297 24.3359 19.9219 25 19.9219C28.8672 19.9219 32.0312 23.0859 32.0312 26.9531C32.0312 30.8203 28.8672 33.9844 25 33.9844Z" fill="#393939"/>
<path d="M21.0156 23.7891C20.9375 23.7891 20.8594 23.7891 20.7812 23.75C20.7031 23.7109 20.625 23.7109 20.5469 23.6719C20.4687 23.6328 20.3906 23.5937 20.3516 23.5547C20.2734 23.5156 20.2344 23.4766 20.1562 23.3984C20.1172 23.3594 20.0391 23.2812 20 23.2031C19.9609 23.125 19.9219 23.0859 19.8828 23.0078C19.8438 22.9297 19.8438 22.8516 19.8047 22.7734C19.8047 22.6953 19.7656 22.6172 19.7656 22.5391C19.7656 22.4609 19.7656 22.3828 19.8047 22.3047C19.8047 22.2266 19.8438 22.1484 19.8828 22.0703C19.9219 21.9922 19.9609 21.9141 20 21.875C20.0391 21.7969 20.0781 21.7578 20.1562 21.6797C20.1953 21.6406 20.2734 21.5625 20.3516 21.5234C20.4297 21.4844 20.4687 21.4453 20.5469 21.4062C20.625 21.3672 20.7031 21.3672 20.7812 21.3281C20.9375 21.2891 21.0938 21.2891 21.25 21.3281C21.3281 21.3281 21.4062 21.3672 21.4844 21.4062C21.5625 21.4453 21.6406 21.4844 21.6797 21.5234C21.7578 21.5625 21.7969 21.6016 21.8359 21.6797C21.875 21.7187 21.9531 21.7969 21.9922 21.875C22.0312 21.9531 22.0703 21.9922 22.1094 22.0703C22.1484 22.1484 22.1484 22.2266 22.1875 22.3047C22.1875 22.3828 22.2266 22.4609 22.2266 22.5391C22.2266 22.6172 22.2266 22.6953 22.1875 22.7734C22.1875 22.8516 22.1484 22.9297 22.1094 23.0078C22.0703 23.0859 22.0312 23.1641 21.9922 23.2031C21.9531 23.2812 21.9141 23.3203 21.8359 23.3984C21.7969 23.4375 21.7188 23.5156 21.6797 23.5547C21.6016 23.5937 21.5625 23.6328 21.4844 23.6719C21.4062 23.7109 21.3281 23.7109 21.25 23.75C21.1719 23.7891 21.0938 23.7891 21.0156 23.7891ZM33.5938 16.7969C33.1793 16.7969 32.7819 16.9615 32.4889 17.2545C32.1959 17.5475 32.0312 17.945 32.0312 18.3594C32.0312 18.7738 32.1959 19.1712 32.4889 19.4642C32.7819 19.7573 33.1793 19.9219 33.5938 19.9219C34.0082 19.9219 34.4056 19.7573 34.6986 19.4642C34.9916 19.1712 35.1562 18.7738 35.1562 18.3594C35.1562 17.945 34.9916 17.5475 34.6986 17.2545C34.4056 16.9615 34.0082 16.7969 33.5938 16.7969ZM7.42188 43.8672C6.79688 43.8672 6.25 43.3594 6.25 42.6953C6.25 42.0312 6.75781 41.5234 7.42188 41.5234L42.5781 41.3281C43.2031 41.3281 43.75 41.8359 43.75 42.5C43.75 43.1641 43.2422 43.6719 42.5781 43.6719L7.42188 43.8672ZM48.4375 43.6719C48.125 43.6719 47.8125 43.5547 47.6172 43.3203C47.5781 43.2812 47.5 43.2031 47.4609 43.125C47.4219 43.0469 47.3828 43.0078 47.3438 42.9297C47.3047 42.8516 47.3047 42.7734 47.2656 42.6953C47.2656 42.6172 47.2266 42.5391 47.2266 42.4609C47.2266 42.3828 47.2266 42.3047 47.2656 42.2266C47.2656 42.1484 47.3047 42.0703 47.3438 41.9922C47.3828 41.9141 47.4219 41.8359 47.4609 41.7969C47.5 41.7187 47.5391 41.6797 47.6172 41.6016C47.6562 41.5625 47.7344 41.4844 47.7734 41.4453C47.8516 41.4062 47.8906 41.3672 47.9688 41.3281C48.0469 41.2891 48.125 41.2891 48.2031 41.25C48.3594 41.2109 48.5156 41.2109 48.6719 41.25C48.75 41.25 48.8281 41.2891 48.9062 41.3281C48.9844 41.3672 49.0625 41.4062 49.1016 41.4453C49.1797 41.4844 49.2188 41.5234 49.2578 41.6016C49.4922 41.8359 49.6094 42.1094 49.6094 42.4219C49.6094 42.5 49.6094 42.5781 49.5703 42.6562C49.5703 42.7344 49.5312 42.8125 49.4922 42.8906C49.4531 42.9688 49.4141 43.0469 49.375 43.0859C49.3359 43.1641 49.2969 43.2031 49.2188 43.2812C49.0625 43.5547 48.75 43.6719 48.4375 43.6719Z" fill="white"/>
</svg>
