<svg width="51" height="46" viewBox="0 0 51 46" fill="none" xmlns="http://www.w3.org/2000/svg">
<g clip-path="url(#clip0)">
<path d="M43.2212 6.73372C33.4837 -2.24697 17.6984 -2.24481 7.96382 6.73867C-1.77076 15.7221 -1.76842 30.2849 7.96917 39.2656C17.7068 48.2463 33.492 48.2441 43.2266 39.2607C47.9017 34.9463 50.5274 29.0952 50.526 22.9947C50.5246 16.8952 47.897 11.046 43.2212 6.73372ZM38.4212 32.0384L38.4179 32.0414V32.0338L37.1547 33.1914C35.5211 34.7176 33.1418 35.3455 30.8804 34.8474C28.6021 34.2848 26.4362 33.3893 24.465 32.1948C22.6335 31.115 20.9363 29.8527 19.404 28.4304C17.9942 27.1393 16.7276 25.7216 15.6228 24.1984C14.4145 22.5595 13.458 20.7741 12.7807 18.8931C12.0043 16.6833 12.6477 14.2585 14.4428 12.6295L15.922 11.2648C16.3332 10.8837 17.0015 10.8823 17.4145 11.2618L17.4178 11.2648L22.0882 15.5735C22.5013 15.9529 22.5027 16.5694 22.0915 16.9504L22.0882 16.9535L19.3458 19.4834C18.5589 20.2015 18.46 21.3425 19.1131 22.1668C20.105 23.4226 21.2026 24.6044 22.3957 25.7012C23.7259 26.9337 25.172 28.0548 26.717 29.0515C27.6097 29.626 28.82 29.5291 29.5923 28.8215L32.2432 26.3375C32.6545 25.9564 33.3228 25.9551 33.7358 26.3345L33.7391 26.3375L38.4178 30.6615C38.831 31.0409 38.8325 31.6573 38.4212 32.0384Z" fill="white"/>
</g>
<defs>
<clipPath id="clip0">
<rect width="49.8615" height="46" fill="white" transform="translate(0.664795)"/>
</clipPath>
</defs>
</svg>
