<svg width="74" height="44" viewBox="0 0 74 44" fill="none" xmlns="http://www.w3.org/2000/svg">
<path d="M39.704 38.888C38.584 40.264 37.208 41.304 35.576 42.008C33.976 42.744 32.216 43.112 30.296 43.112C28.44 43.112 26.76 42.872 25.256 42.392C23.752 41.912 22.232 41.112 20.696 39.992C19.192 38.904 17.496 37.368 15.608 35.384C12.696 34.904 10.104 33.864 7.832 32.264C5.56 30.664 3.784 28.648 2.504 26.216C1.256 23.784 0.632 21.112 0.632 18.2C0.632 14.872 1.432 11.88 3.032 9.224C4.664 6.568 6.888 4.488 9.704 2.984C12.552 1.48 15.752 0.727998 19.304 0.727998C22.856 0.727998 26.04 1.48 28.856 2.984C31.704 4.488 33.928 6.568 35.528 9.224C37.16 11.88 37.976 14.872 37.976 18.2C37.976 21.976 36.936 25.32 34.856 28.232C32.808 31.112 30.04 33.176 26.552 34.424C27.192 35.128 27.816 35.624 28.424 35.912C29.064 36.2 29.752 36.344 30.488 36.344C32.376 36.344 34.072 35.56 35.576 33.992L39.704 38.888ZM10.232 18.2C10.232 20.088 10.632 21.768 11.432 23.24C12.232 24.68 13.32 25.8 14.696 26.6C16.072 27.4 17.608 27.8 19.304 27.8C21 27.8 22.536 27.4 23.912 26.6C25.288 25.8 26.376 24.68 27.176 23.24C27.976 21.768 28.376 20.088 28.376 18.2C28.376 16.312 27.976 14.648 27.176 13.208C26.376 11.736 25.288 10.6 23.912 9.8C22.536 9 21 8.6 19.304 8.6C17.608 8.6 16.072 9 14.696 9.8C13.32 10.6 12.232 11.736 11.432 13.208C10.632 14.648 10.232 16.312 10.232 18.2ZM57.6418 26.072H52.4578V35H42.9538V1.4H58.3138C61.3538 1.4 63.9938 1.912 66.2338 2.936C68.4738 3.928 70.2018 5.368 71.4178 7.256C72.6338 9.112 73.2418 11.304 73.2418 13.832C73.2418 16.264 72.6658 18.392 71.5138 20.216C70.3938 22.008 68.7778 23.416 66.6658 24.44L73.9138 35H63.7378L57.6418 26.072ZM63.6418 13.832C63.6418 12.264 63.1458 11.048 62.1538 10.184C61.1618 9.32 59.6898 8.888 57.7378 8.888H52.4578V18.728H57.7378C59.6898 18.728 61.1618 18.312 62.1538 17.48C63.1458 16.616 63.6418 15.4 63.6418 13.832Z" fill="url(#paint0_linear)"/>
<defs>
<linearGradient id="paint0_linear" x1="29" y1="3.5" x2="80.5" y2="54" gradientUnits="userSpaceOnUse">
<stop stop-color="#5BD1BC"/>
<stop offset="1" stop-color="#D15BB7" stop-opacity="0.52"/>
</linearGradient>
</defs>
</svg>
