<svg width="51" height="50" viewBox="0 0 51 50" fill="none" xmlns="http://www.w3.org/2000/svg">
<g clip-path="url(#clip0)">
<path d="M14.3413 8.49481C14.3413 4.95516 17.2029 2.08557 20.7332 2.08557C24.2631 2.08557 27.125 4.95516 27.125 8.49481C27.125 12.0345 24.2631 14.904 20.7332 14.904C17.2029 14.904 14.3413 12.0345 14.3413 8.49481ZM23.8049 19.2705C23.869 17.8749 24.3481 16.5832 25.1189 15.5153C24.5779 15.4017 24.0188 15.3414 23.4451 15.3414H18.0221C17.4501 15.3414 16.8917 15.4013 16.3535 15.5135C17.1738 16.6544 17.6645 18.0478 17.6725 19.5561C18.6696 19.0062 19.8136 18.6931 21.0288 18.6931C22.0146 18.6931 22.953 18.899 23.8049 19.2705ZM24.8868 19.8458C26.7433 21.0133 28.0452 22.988 28.2834 25.2811C29.0398 25.6357 29.8805 25.8402 30.7711 25.8402C34.0236 25.8402 36.6598 23.1963 36.6598 19.9349C36.6598 16.6731 34.0236 14.0298 30.7711 14.0298C27.5484 14.0299 24.9357 16.6263 24.8868 19.8458ZM21.0287 31.9372C24.2806 31.9372 26.9171 29.2926 26.9171 26.0321C26.9171 22.7711 24.2806 20.127 21.0287 20.127C17.7765 20.127 15.139 22.771 15.139 26.0321C15.1391 29.2926 17.7765 31.9372 21.0287 31.9372ZM23.5267 32.3391H18.5303C14.3729 32.3391 10.9899 35.7313 10.9899 39.9008V46.029L11.0058 46.125L11.4264 46.2561C15.3941 47.4988 18.8412 47.9144 21.6786 47.9144C27.2195 47.9144 30.4324 46.33 30.6304 46.2286L31.0239 46.0289H31.0657V39.9007C31.0657 35.7313 27.6846 32.3391 23.5267 32.3391ZM33.2703 26.2432H28.3115C28.2576 28.2329 27.4108 30.0246 26.0716 31.3125C29.7672 32.4145 32.4711 35.8508 32.4711 39.9101V41.7984C37.3663 41.6176 40.1877 40.2271 40.3735 40.1334L40.7672 39.9327H40.8089V33.8034C40.8095 29.635 37.4267 26.2432 33.2703 26.2432ZM34.5959 13.9039C36.4525 15.0716 37.7543 17.0463 37.9919 19.3395C38.7484 19.694 39.589 19.8982 40.4796 19.8982C43.7327 19.8982 46.3688 17.2547 46.3688 13.9937C46.3688 10.7318 43.7326 8.08861 40.4796 8.08861C37.2573 8.08824 34.6449 10.6852 34.5959 13.9039ZM42.9783 20.3013H38.0204C37.9666 22.291 37.1199 24.0827 35.7807 25.3705C39.4762 26.4721 42.18 29.9089 42.18 33.9682V35.8564C47.0747 35.6761 49.8968 34.2857 50.0826 34.1914L50.4757 33.9913H50.518V27.8612C50.5185 23.6932 47.1358 20.3013 42.9783 20.3013ZM10.696 25.8403C11.8481 25.8403 12.9193 25.5028 13.8278 24.9284C14.1167 23.0405 15.126 21.3904 16.5674 20.2672C16.5734 20.1563 16.5836 20.0469 16.5836 19.935C16.5836 16.6732 13.9465 14.0299 10.696 14.0299C7.44271 14.0299 4.80682 16.6731 4.80682 19.935C4.80682 23.197 7.44262 25.8403 10.696 25.8403ZM15.9845 31.3125C14.6516 30.0308 13.8077 28.2489 13.7455 26.2708C13.5622 26.257 13.3802 26.2432 13.1928 26.2432H8.19695C4.039 26.2432 0.656494 29.635 0.656494 33.8039V39.9327L0.671934 40.0281L1.0931 40.1598C4.27544 41.1577 7.1167 41.6163 9.58443 41.7597V39.9095C9.58489 35.8508 12.2881 32.414 15.9845 31.3125Z" fill="white"/>
</g>
<defs>
<clipPath id="clip0">
<rect width="49.8615" height="50" fill="white" transform="translate(0.656494)"/>
</clipPath>
</defs>
</svg>
